<svg width="516" height="159" viewBox="0 0 516 159" fill="none" xmlns="http://www.w3.org/2000/svg">
<path d="M29.294 128V38.4H42.862L75.502 91.52L68.974 91.392L101.998 38.4H114.798V128H100.974V91.264C100.974 83.584 101.145 76.672 101.486 70.528C101.913 64.384 102.595 58.2827 103.534 52.224L105.326 56.96L76.014 102.272H67.566L39.15 57.472L40.558 52.224C41.4967 57.9413 42.1367 63.8293 42.478 69.888C42.9047 75.8613 43.118 82.9867 43.118 91.264V128H29.294ZM230.357 128L201.941 60.8H216.149L236.629 111.104L234.197 112.256L256.085 60.8H269.653L239.829 128H230.357ZM307.873 129.28C301.729 129.28 296.225 127.787 291.361 124.8C286.582 121.728 282.785 117.589 279.969 112.384C277.153 107.093 275.745 101.077 275.745 94.336C275.745 87.5947 277.11 81.6213 279.841 76.416C282.657 71.1253 286.454 66.9867 291.233 64C296.012 60.928 301.43 59.392 307.489 59.392C310.817 59.392 314.017 59.9467 317.089 61.056C320.246 62.08 323.062 63.5307 325.537 65.408C328.012 67.2 329.932 69.2053 331.297 71.424C332.748 73.5573 333.473 75.7333 333.473 77.952L329.633 78.208V33.28H342.817V128H329.633V112H332.193C332.193 114.048 331.51 116.096 330.145 118.144C328.78 120.107 326.945 121.941 324.641 123.648C322.422 125.355 319.82 126.72 316.833 127.744C313.932 128.768 310.945 129.28 307.873 129.28ZM309.665 117.888C313.676 117.888 317.217 116.864 320.289 114.816C323.361 112.768 325.75 109.995 327.457 106.496C329.249 102.912 330.145 98.8587 330.145 94.336C330.145 89.8133 329.249 85.8027 327.457 82.304C325.75 78.72 323.361 75.904 320.289 73.856C317.217 71.808 313.676 70.784 309.665 70.784C305.654 70.784 302.113 71.808 299.041 73.856C295.969 75.904 293.537 78.72 291.745 82.304C290.038 85.8027 289.185 89.8133 289.185 94.336C289.185 98.8587 290.038 102.912 291.745 106.496C293.537 109.995 295.969 112.768 299.041 114.816C302.113 116.864 305.654 117.888 309.665 117.888ZM392.326 129.28C385.414 129.28 379.27 127.829 373.894 124.928C368.603 121.941 364.422 117.888 361.35 112.768C358.363 107.648 356.87 101.76 356.87 95.104C356.87 89.8133 357.723 84.992 359.43 80.64C361.137 76.288 363.483 72.5333 366.47 69.376C369.542 66.1333 373.169 63.6587 377.35 61.952C381.617 60.16 386.225 59.264 391.174 59.264C395.526 59.264 399.579 60.1173 403.334 61.824C407.089 63.4453 410.331 65.7067 413.062 68.608C415.878 71.5093 418.011 74.9653 419.462 78.976C420.998 82.9013 421.723 87.2107 421.638 91.904L421.51 97.536H366.598L363.654 87.04H410.118L408.198 89.216V86.144C407.942 83.328 407.003 80.8107 405.382 78.592C403.761 76.3733 401.713 74.624 399.238 73.344C396.763 72.064 394.075 71.424 391.174 71.424C386.566 71.424 382.683 72.32 379.526 74.112C376.369 75.8187 373.979 78.3787 372.358 81.792C370.737 85.12 369.926 89.2587 369.926 94.208C369.926 98.9013 370.907 102.997 372.87 106.496C374.833 109.909 377.606 112.555 381.19 114.432C384.774 116.309 388.913 117.248 393.606 117.248C396.934 117.248 400.006 116.693 402.822 115.584C405.723 114.475 408.838 112.469 412.166 109.568L418.822 118.912C416.774 120.96 414.257 122.752 411.27 124.288C408.369 125.824 405.254 127.061 401.926 128C398.683 128.853 395.483 129.28 392.326 129.28ZM480.263 128L458.503 99.712L456.583 97.28L428.295 60.8H444.935L466.311 88.704L468.487 91.52L496.391 128H480.263ZM428.423 128L454.919 93.44L462.727 102.784L444.039 128H428.423ZM469.255 95.488L461.959 86.272L478.471 60.8H494.087L469.255 95.488Z" fill="url(#paint0_linear_6_10)"/>
<g clip-path="url(#clip0_6_10)">
<path d="M167.54 113.157L163.898 109.515L189.393 84.0204L193.035 87.6624L167.54 113.157ZM174.824 120.441L171.182 116.799L196.677 91.3045L200.319 94.9465L174.824 120.441ZM182.108 127.725L178.466 124.083L203.961 98.5886L207.603 102.231L182.108 127.725ZM162.077 118.62C161.561 119.136 160.954 119.394 160.256 119.394C159.558 119.394 158.951 119.136 158.435 118.62C157.919 118.104 157.661 117.497 157.661 116.799C157.661 116.101 157.919 115.494 158.435 114.978C158.951 114.462 159.558 114.204 160.256 114.204C160.954 114.204 161.561 114.462 162.077 114.978C162.593 115.494 162.851 116.101 162.851 116.799C162.851 117.497 162.593 118.104 162.077 118.62ZM169.361 125.904C168.845 126.42 168.238 126.678 167.54 126.678C166.842 126.678 166.235 126.42 165.719 125.904C165.203 125.388 164.945 124.781 164.945 124.083C164.945 123.385 165.203 122.778 165.719 122.262C166.235 121.746 166.842 121.488 167.54 121.488C168.238 121.488 168.845 121.746 169.361 122.262C169.877 122.778 170.135 123.385 170.135 124.083C170.135 124.781 169.877 125.388 169.361 125.904ZM176.645 133.188C176.129 133.704 175.522 133.962 174.824 133.962C174.126 133.962 173.519 133.704 173.003 133.188C172.487 132.672 172.229 132.065 172.229 131.367C172.229 130.669 172.487 130.062 173.003 129.546C173.519 129.03 174.126 128.772 174.824 128.772C175.522 128.772 176.129 129.03 176.645 129.546C177.161 130.062 177.419 130.669 177.419 131.367C177.419 132.065 177.161 132.672 176.645 133.188Z" fill="url(#paint1_linear_6_10)"/>
</g>
<g clip-path="url(#clip1_6_10)">
<path d="M132.24 87.7198L143.67 91.5298L149.385 85.8148L137.955 82.0048L141.765 78.1948L153.195 82.0048L158.91 76.2898L147.48 72.4799L151.29 68.6699L162.72 72.4799L168.435 66.7649L157.005 62.9549L162.72 57.2399C163.768 56.1922 165.038 55.6683 166.53 55.6683C168.022 55.6683 169.292 56.1922 170.34 57.2399L193.2 80.0998C194.247 81.1476 194.771 82.4176 194.771 83.9098C194.771 85.4021 194.247 86.6721 193.2 87.7198L162.72 118.2C161.672 119.247 160.402 119.771 158.91 119.771C157.418 119.771 156.148 119.247 155.1 118.2L132.24 95.3398C131.192 94.292 130.668 93.022 130.668 91.5298C130.668 90.0375 131.192 88.7675 132.24 87.7198ZM143.67 99.1498L158.91 114.39L189.39 83.9098L174.15 68.6699L143.67 99.1498Z" fill="url(#paint2_linear_6_10)"/>
</g>
<defs>
<linearGradient id="paint0_linear_6_10" x1="0" y1="79.5" x2="515" y2="79.5" gradientUnits="userSpaceOnUse">
<stop stop-color="#E97B7B"/>
<stop offset="1" stop-color="#601C1C"/>
</linearGradient>
<linearGradient id="paint1_linear_6_10" x1="173.003" y1="100.41" x2="191.214" y2="118.62" gradientUnits="userSpaceOnUse">
<stop stop-color="#E97B7B"/>
<stop offset="1" stop-color="#601C1C"/>
</linearGradient>
<linearGradient id="paint2_linear_6_10" x1="147.48" y1="72.4799" x2="177.96" y2="102.96" gradientUnits="userSpaceOnUse">
<stop stop-color="#E97B7B"/>
<stop offset="1" stop-color="#601C1C"/>
</linearGradient>
<clipPath id="clip0_6_10">
<rect width="61.8075" height="61.8075" fill="white" transform="translate(144.852 114.552) rotate(-45)"/>
</clipPath>
<clipPath id="clip1_6_10">
<rect width="64.6576" height="64.6576" fill="white" transform="translate(117 87.7198) rotate(-45)"/>
</clipPath>
</defs>
</svg>
