<svg width="232" height="234" viewBox="0 0 232 234" fill="none" xmlns="http://www.w3.org/2000/svg">
<g clip-path="url(#clip0_6_2)">
<g clip-path="url(#clip1_6_2)">
<path d="M101.616 143.125L94.2934 135.786L145.552 84.4149L152.875 91.7536L101.616 143.125ZM116.261 157.802L108.939 150.463L160.197 99.0923L167.52 106.431L116.261 157.802ZM130.907 172.479L123.584 165.141L174.843 113.77L182.165 121.108L130.907 172.479ZM90.632 154.133C89.5947 155.172 88.3742 155.692 86.9707 155.692C85.5672 155.692 84.3468 155.172 83.3094 154.133C82.272 153.093 81.7533 151.87 81.7533 150.463C81.7533 149.057 82.272 147.834 83.3094 146.794C84.3468 145.754 85.5672 145.234 86.9707 145.234C88.3742 145.234 89.5947 145.754 90.632 146.794C91.6694 147.834 92.1881 149.057 92.1881 150.463C92.1881 151.87 91.6694 153.093 90.632 154.133ZM105.277 168.81C104.24 169.85 103.02 170.37 101.616 170.37C100.213 170.37 98.9921 169.85 97.9547 168.81C96.9173 167.77 96.3986 166.547 96.3986 165.141C96.3986 163.734 96.9173 162.511 97.9547 161.471C98.9921 160.432 100.213 159.912 101.616 159.912C103.02 159.912 104.24 160.432 105.277 161.471C106.315 162.511 106.833 163.734 106.833 165.141C106.833 166.547 106.315 167.77 105.277 168.81ZM119.923 183.487C118.885 184.527 117.665 185.047 116.261 185.047C114.858 185.047 113.637 184.527 112.6 183.487C111.563 182.448 111.044 181.225 111.044 179.818C111.044 178.412 111.563 177.188 112.6 176.149C113.637 175.109 114.858 174.589 116.261 174.589C117.665 174.589 118.885 175.109 119.923 176.149C120.96 177.188 121.479 178.412 121.479 179.818C121.479 181.225 120.96 182.448 119.923 183.487Z" fill="url(#paint0_linear_6_2)"/>
</g>
<g clip-path="url(#clip2_6_2)">
<path d="M30.6413 91.8691L53.6223 99.5463L65.1128 88.0306L42.1318 80.3535L49.7921 72.6764L72.7731 80.3535L84.2636 68.8378L61.2826 61.1607L68.9429 53.4836L91.9239 61.1607L103.414 49.645L80.4334 41.9679L91.9239 30.4522C94.0305 28.341 96.5839 27.2854 99.5842 27.2854C102.585 27.2854 105.138 28.341 107.245 30.4522L153.206 76.5149C155.313 78.6261 156.366 81.1852 156.366 84.192C156.366 87.1989 155.313 89.7579 153.206 91.8691L91.9239 153.286C89.8173 155.397 87.2639 156.453 84.2636 156.453C81.2633 156.453 78.7098 155.397 76.6032 153.286L30.6413 107.223C28.5347 105.112 27.4814 102.553 27.4814 99.5463C27.4814 96.5394 28.5347 93.9804 30.6413 91.8691ZM53.6223 114.9L84.2636 145.609L145.546 84.192L114.905 53.4836L53.6223 114.9Z" fill="url(#paint1_linear_6_2)"/>
</g>
</g>
<defs>
<linearGradient id="paint0_linear_6_2" x1="112.6" y1="117.439" x2="149.293" y2="154.052" gradientUnits="userSpaceOnUse">
<stop stop-color="#E97B7B"/>
<stop offset="1" stop-color="#601C1C"/>
</linearGradient>
<linearGradient id="paint1_linear_6_2" x1="61.2826" y1="61.1607" x2="122.699" y2="122.443" gradientUnits="userSpaceOnUse">
<stop stop-color="#E97B7B"/>
<stop offset="1" stop-color="#601C1C"/>
</linearGradient>
<clipPath id="clip0_6_2">
<rect width="232" height="234" fill="white"/>
</clipPath>
<clipPath id="clip1_6_2">
<rect width="124.406" height="124.406" fill="white" transform="matrix(0.706332 -0.707881 0.706332 0.707881 56 145.935)"/>
</clipPath>
<clipPath id="clip2_6_2">
<rect width="130.143" height="130.143" fill="white" transform="matrix(0.706332 -0.707881 0.706332 0.707881 0 91.8691)"/>
</clipPath>
</defs>
</svg>
